# Blender 3.4.0
# www.blender.org
o Circle.001
v -0.420952 0.000000 -1.016267
v -1.016267 0.000000 -0.420952
v -1.016267 0.000000 0.420952
v -0.420952 0.000000 1.016267
v 0.420952 0.000000 1.016267
v 1.016267 0.000000 0.420952
v 1.016267 0.000000 -0.420952
v 0.420952 0.000000 -1.016267
v -0.000000 0.000000 -0.340200
v -0.066370 0.000000 -0.333663
v -0.130189 0.000000 -0.314304
v -0.189005 0.000000 -0.282866
v -0.240558 0.000000 -0.240558
v -0.282866 0.000000 -0.189005
v -0.314304 0.000000 -0.130189
v -0.333663 0.000000 -0.066370
v -0.340200 0.000000 -0.000000
v -0.333663 0.000000 0.066370
v -0.314304 0.000000 0.130189
v -0.282866 0.000000 0.189005
v -0.240558 0.000000 0.240558
v -0.189005 0.000000 0.282866
v -0.130189 0.000000 0.314304
v -0.066370 0.000000 0.333663
v -0.000000 0.000000 0.340200
v 0.066370 0.000000 0.333663
v 0.130189 0.000000 0.314304
v 0.189005 0.000000 0.282866
v 0.240558 0.000000 0.240558
v 0.282866 0.000000 0.189005
v 0.314304 0.000000 0.130189
v 0.333663 0.000000 0.066370
v 0.340200 0.000000 -0.000000
v 0.333663 0.000000 -0.066370
v 0.314304 0.000000 -0.130189
v 0.282866 0.000000 -0.189005
v 0.240558 0.000000 -0.240558
v 0.189005 0.000000 -0.282866
v 0.130189 0.000000 -0.314304
v 0.066370 0.000000 -0.333663
v -0.252571 0.000000 -0.609760
v -0.609760 0.000000 -0.252571
v -0.609760 0.000000 0.252571
v -0.252571 0.000000 0.609760
v 0.252571 0.000000 0.609760
v 0.609760 0.000000 0.252571
v 0.609760 0.000000 -0.252571
v 0.252571 0.000000 -0.609760
v -0.431166 0.000000 -0.431166
v 0.000000 0.000000 -0.609760
v 0.431166 0.000000 -0.431166
v 0.609760 0.000000 0.000000
v 0.431166 0.000000 0.431166
v 0.000000 0.000000 0.609760
v -0.431166 0.000000 0.431166
v -0.609760 0.000000 0.000000
v -0.420952 0.200000 -1.016267
v -1.016267 0.200000 -0.420952
v -1.016267 0.200000 0.420952
v -0.420952 0.200000 1.016267
v 0.420952 0.200000 1.016267
v 1.016267 0.200000 0.420952
v 1.016267 0.200000 -0.420952
v 0.420952 0.200000 -1.016267
v -0.000000 0.200000 -0.340200
v -0.066370 0.200000 -0.333663
v -0.130189 0.200000 -0.314304
v -0.189005 0.200000 -0.282866
v -0.240558 0.200000 -0.240558
v -0.282866 0.200000 -0.189005
v -0.314304 0.200000 -0.130189
v -0.333663 0.200000 -0.066370
v -0.340200 0.200000 -0.000000
v -0.333663 0.200000 0.066370
v -0.314304 0.200000 0.130189
v -0.282866 0.200000 0.189005
v -0.240558 0.200000 0.240558
v -0.189005 0.200000 0.282866
v -0.130189 0.200000 0.314304
v -0.066370 0.200000 0.333663
v -0.000000 0.200000 0.340200
v 0.066370 0.200000 0.333663
v 0.130189 0.200000 0.314304
v 0.189005 0.200000 0.282866
v 0.240558 0.200000 0.240558
v 0.282866 0.200000 0.189005
v 0.314304 0.200000 0.130189
v 0.333663 0.200000 0.066370
v 0.340200 0.200000 -0.000000
v 0.333663 0.200000 -0.066370
v 0.314304 0.200000 -0.130189
v 0.282866 0.200000 -0.189005
v 0.240558 0.200000 -0.240558
v 0.189005 0.200000 -0.282866
v 0.130189 0.200000 -0.314304
v 0.066370 0.200000 -0.333663
v -0.252571 0.200000 -0.609760
v -0.609760 0.200000 -0.252571
v -0.609760 0.200000 0.252571
v -0.252571 0.200000 0.609760
v 0.252571 0.200000 0.609760
v 0.609760 0.200000 0.252571
v 0.609760 0.200000 -0.252571
v 0.252571 0.200000 -0.609760
v -0.431166 0.200000 -0.431166
v 0.000000 0.200000 -0.609760
v 0.431166 0.200000 -0.431166
v 0.609760 0.200000 0.000000
v 0.431166 0.200000 0.431166
v 0.000000 0.200000 0.609760
v -0.431166 0.200000 0.431166
v -0.609760 0.200000 0.000000
vn -0.0000 -1.0000 -0.0000
vn -0.0000 1.0000 -0.0000
vn -0.7071 -0.0000 -0.7071
vn -0.6344 -0.0000 -0.7730
vn 0.9569 -0.0000 0.2903
vn -1.0000 -0.0000 -0.0000
vn -0.7730 -0.0000 -0.6344
vn 0.9952 -0.0000 0.0980
vn -0.7071 -0.0000 0.7071
vn -0.8819 -0.0000 -0.4714
vn 0.9952 -0.0000 -0.0980
vn -0.0000 -0.0000 1.0000
vn -0.9569 -0.0000 -0.2903
vn 0.9569 -0.0000 -0.2903
vn 0.7071 -0.0000 0.7071
vn -0.9952 -0.0000 -0.0980
vn 0.8819 -0.0000 -0.4714
vn 1.0000 -0.0000 -0.0000
vn -0.9952 -0.0000 0.0980
vn 0.7730 -0.0000 -0.6344
vn 0.7071 -0.0000 -0.7071
vn -0.9569 -0.0000 0.2903
vn 0.6344 -0.0000 -0.7730
vn -0.0000 -0.0000 -1.0000
vn -0.8819 -0.0000 0.4714
vn 0.4714 -0.0000 -0.8819
vn 0.0980 -0.0000 0.9952
vn -0.7730 -0.0000 0.6344
vn 0.2903 -0.0000 -0.9569
vn 0.2903 -0.0000 0.9569
vn -0.6344 -0.0000 0.7730
vn 0.0980 -0.0000 -0.9952
vn 0.4714 -0.0000 0.8819
vn -0.4714 -0.0000 0.8819
vn -0.0980 -0.0000 -0.9952
vn 0.6344 -0.0000 0.7730
vn -0.2903 -0.0000 0.9569
vn -0.2903 -0.0000 -0.9569
vn 0.7730 -0.0000 0.6344
vn -0.0980 -0.0000 0.9952
vn -0.4714 -0.0000 -0.8819
vn 0.8819 -0.0000 0.4714
s 0
f 49//1 42//1 1//1
f 2//1 42//1 56//1
f 3//1 56//1 43//1
f 3//1 43//1 55//1
f 4//1 55//1 44//1
f 4//1 44//1 54//1
f 5//1 54//1 45//1
f 5//1 45//1 53//1
f 6//1 53//1 46//1
f 6//1 46//1 52//1
f 7//1 52//1 47//1
f 7//1 47//1 51//1
f 8//1 51//1 48//1
f 8//1 48//1 50//1
f 1//1 50//1 41//1
f 1//1 41//1 49//1
f 2//1 56//1 3//1
f 3//1 55//1 4//1
f 4//1 54//1 5//1
f 5//1 53//1 6//1
f 6//1 52//1 7//1
f 7//1 51//1 8//1
f 8//1 50//1 1//1
f 41//1 10//1 11//1
f 1//1 42//1 2//1
f 41//1 11//1 12//1
f 49//1 12//1 13//1
f 42//1 14//1 15//1
f 42//1 15//1 16//1
f 56//1 16//1 17//1
f 56//1 17//1 18//1
f 43//1 18//1 19//1
f 43//1 19//1 20//1
f 55//1 20//1 21//1
f 55//1 21//1 22//1
f 44//1 22//1 23//1
f 44//1 23//1 24//1
f 54//1 24//1 25//1
f 54//1 25//1 26//1
f 45//1 26//1 27//1
f 45//1 27//1 28//1
f 53//1 28//1 29//1
f 53//1 29//1 30//1
f 46//1 30//1 31//1
f 46//1 31//1 32//1
f 52//1 32//1 33//1
f 52//1 33//1 34//1
f 47//1 34//1 35//1
f 47//1 35//1 36//1
f 51//1 36//1 37//1
f 51//1 37//1 38//1
f 48//1 38//1 39//1
f 13//1 42//1 49//1
f 50//1 40//1 9//1
f 50//1 9//1 10//1
f 41//1 12//1 49//1
f 14//1 42//1 13//1
f 42//1 16//1 56//1
f 56//1 18//1 43//1
f 43//1 20//1 55//1
f 55//1 22//1 44//1
f 44//1 24//1 54//1
f 54//1 26//1 45//1
f 45//1 28//1 53//1
f 53//1 30//1 46//1
f 46//1 32//1 52//1
f 52//1 34//1 47//1
f 47//1 36//1 51//1
f 51//1 38//1 48//1
f 40//1 50//1 39//1
f 50//1 10//1 41//1
f 39//1 50//1 48//1
f 105//2 57//2 98//2
f 58//2 112//2 98//2
f 59//2 99//2 112//2
f 59//2 111//2 99//2
f 60//2 100//2 111//2
f 60//2 110//2 100//2
f 61//2 101//2 110//2
f 61//2 109//2 101//2
f 62//2 102//2 109//2
f 62//2 108//2 102//2
f 63//2 103//2 108//2
f 63//2 107//2 103//2
f 64//2 104//2 107//2
f 64//2 106//2 104//2
f 57//2 97//2 106//2
f 57//2 105//2 97//2
f 58//2 59//2 112//2
f 59//2 60//2 111//2
f 60//2 61//2 110//2
f 61//2 62//2 109//2
f 62//2 63//2 108//2
f 63//2 64//2 107//2
f 64//2 57//2 106//2
f 97//2 67//2 66//2
f 57//2 58//2 98//2
f 97//2 68//2 67//2
f 105//2 69//2 68//2
f 98//2 71//2 70//2
f 98//2 72//2 71//2
f 112//2 73//2 72//2
f 112//2 74//2 73//2
f 99//2 75//2 74//2
f 99//2 76//2 75//2
f 111//2 77//2 76//2
f 111//2 78//2 77//2
f 100//2 79//2 78//2
f 100//2 80//2 79//2
f 110//2 81//2 80//2
f 110//2 82//2 81//2
f 101//2 83//2 82//2
f 101//2 84//2 83//2
f 109//2 85//2 84//2
f 109//2 86//2 85//2
f 102//2 87//2 86//2
f 102//2 88//2 87//2
f 108//2 89//2 88//2
f 108//2 90//2 89//2
f 103//2 91//2 90//2
f 103//2 92//2 91//2
f 107//2 93//2 92//2
f 107//2 94//2 93//2
f 104//2 95//2 94//2
f 69//2 105//2 98//2
f 106//2 65//2 96//2
f 106//2 66//2 65//2
f 97//2 105//2 68//2
f 70//2 69//2 98//2
f 98//2 112//2 72//2
f 112//2 99//2 74//2
f 99//2 111//2 76//2
f 111//2 100//2 78//2
f 100//2 110//2 80//2
f 110//2 101//2 82//2
f 101//2 109//2 84//2
f 109//2 102//2 86//2
f 102//2 108//2 88//2
f 108//2 103//2 90//2
f 103//2 107//2 92//2
f 107//2 104//2 94//2
f 96//2 95//2 106//2
f 106//2 97//2 66//2
f 95//2 104//2 106//2
f 2//3 57//3 1//3
f 28//4 85//4 29//4
f 15//5 72//5 16//5
f 3//6 58//6 2//6
f 29//7 86//7 30//7
f 16//8 73//8 17//8
f 4//9 59//9 3//9
f 30//10 87//10 31//10
f 17//11 74//11 18//11
f 5//12 60//12 4//12
f 31//13 88//13 32//13
f 18//14 75//14 19//14
f 6//15 61//15 5//15
f 32//16 89//16 33//16
f 19//17 76//17 20//17
f 7//18 62//18 6//18
f 33//19 90//19 34//19
f 20//20 77//20 21//20
f 8//21 63//21 7//21
f 34//22 91//22 35//22
f 21//23 78//23 22//23
f 1//24 64//24 8//24
f 35//25 92//25 36//25
f 22//26 79//26 23//26
f 9//27 66//27 10//27
f 36//28 93//28 37//28
f 23//29 80//29 24//29
f 10//30 67//30 11//30
f 37//31 94//31 38//31
f 24//32 81//32 25//32
f 11//33 68//33 12//33
f 38//34 95//34 39//34
f 25//35 82//35 26//35
f 12//36 69//36 13//36
f 39//37 96//37 40//37
f 26//38 83//38 27//38
f 13//39 70//39 14//39
f 40//40 65//40 9//40
f 27//41 84//41 28//41
f 14//42 71//42 15//42
f 2//3 58//3 57//3
f 28//4 84//4 85//4
f 15//5 71//5 72//5
f 3//6 59//6 58//6
f 29//7 85//7 86//7
f 16//8 72//8 73//8
f 4//9 60//9 59//9
f 30//10 86//10 87//10
f 17//11 73//11 74//11
f 5//12 61//12 60//12
f 31//13 87//13 88//13
f 18//14 74//14 75//14
f 6//15 62//15 61//15
f 32//16 88//16 89//16
f 19//17 75//17 76//17
f 7//18 63//18 62//18
f 33//19 89//19 90//19
f 20//20 76//20 77//20
f 8//21 64//21 63//21
f 34//22 90//22 91//22
f 21//23 77//23 78//23
f 1//24 57//24 64//24
f 35//25 91//25 92//25
f 22//26 78//26 79//26
f 9//27 65//27 66//27
f 36//28 92//28 93//28
f 23//29 79//29 80//29
f 10//30 66//30 67//30
f 37//31 93//31 94//31
f 24//32 80//32 81//32
f 11//33 67//33 68//33
f 38//34 94//34 95//34
f 25//35 81//35 82//35
f 12//36 68//36 69//36
f 39//37 95//37 96//37
f 26//38 82//38 83//38
f 13//39 69//39 70//39
f 40//40 96//40 65//40
f 27//41 83//41 84//41
f 14//42 70//42 71//42
